<svg xmlns="http://www.w3.org/2000/svg" viewBox="0 0 100 100"><g><path fill="#c7ede6" d="M88.544,56.005c0.3-0.616,0.566-1.264,0.796-1.943c2.633-7.77-1.349-17.078-9.733-19.325C78.7,23.354,70.7,15.545,61.666,14.212C51.325,12.687,41.851,19.257,38.7,29.698c-3.799-1.346-7.501-1.182-10.99,0.857c-1.583,0.732-3.031,1.812-4.33,3.233c-1.907,2.086-3.147,4.719-3.652,7.495c-0.748,0.118-1.483,0.236-2.176,0.484c-4.04,1.449-6.589,4.431-7.288,8.923c-0.435,2.797,0.443,5.587,0.933,6.714c1.935,4.455,6.422,6.98,10.981,6.312c0.227-0.033,0.557,0.069,0.752,0.233c0.241,7.12,3.698,13.417,8.884,17.014c8.321,5.772,19.027,3.994,25.781-3.921c2.894,2.96,6.338,4.398,10.384,3.876c4.023-0.519,7.147-2.739,9.426-6.349c1.053,0.283,2.051,0.691,3.083,0.804c4.042,0.442,7.324-1.165,9.732-4.8c0.922-1.391,1.794-3.194,1.794-6.354C92.014,60.962,90.721,57.995,88.544,56.005z"/><path fill="#fdfcef" d="M68.808,43.174c0,0,11.691,0,11.762,0c2.7,0,4.888-2.189,4.888-4.889c0-2.355-1.666-4.321-3.884-4.784c0.026-0.206,0.043-0.415,0.043-0.628c0-2.796-2.267-5.063-5.063-5.063c-1.651,0-3.113,0.794-4.037,2.017c-0.236-3.113-3.017-5.514-6.27-5.116c-2.379,0.291-4.346,2.13-4.784,4.486c-0.14,0.756-0.126,1.489,0.014,2.177c-0.638-0.687-1.546-1.119-2.557-1.119c-1.85,0-3.361,1.441-3.48,3.261c-0.84-0.186-1.754-0.174-2.717,0.188c-1.84,0.691-3.15,2.423-3.227,4.387c-0.109,2.789,2.12,5.085,4.885,5.085c0.21,0,0.948,0,1.118,0h10.151"/><path fill="#472b29" d="M80.57,43.674H68.808c-0.276,0-0.5-0.224-0.5-0.5s0.224-0.5,0.5-0.5H80.57c2.419,0,4.388-1.969,4.388-4.389c0-2.066-1.466-3.873-3.486-4.295c-0.255-0.053-0.426-0.292-0.394-0.55c0.023-0.187,0.039-0.375,0.039-0.567c0-2.516-2.047-4.563-4.563-4.563c-1.438,0-2.765,0.663-3.638,1.818c-0.125,0.166-0.339,0.24-0.54,0.178c-0.199-0.059-0.342-0.234-0.357-0.441c-0.104-1.377-0.779-2.671-1.851-3.549c-1.082-0.887-2.452-1.281-3.86-1.109c-2.166,0.265-3.956,1.943-4.353,4.081c-0.125,0.667-0.12,1.335,0.012,1.986c0.045,0.219-0.062,0.442-0.261,0.544c-0.199,0.102-0.442,0.059-0.595-0.104c-0.574-0.619-1.352-0.959-2.19-0.959c-1.569,0-2.878,1.227-2.981,2.793c-0.01,0.146-0.082,0.28-0.199,0.367c-0.117,0.087-0.267,0.119-0.408,0.088c-0.84-0.187-1.637-0.131-2.433,0.168c-1.669,0.626-2.836,2.209-2.903,3.938c-0.047,1.207,0.387,2.35,1.222,3.218c0.835,0.868,1.958,1.347,3.163,1.347h11.27c0.276,0,0.5,0.224,0.5,0.5s-0.224,0.5-0.5,0.5h-11.27c-1.479,0-2.858-0.587-3.884-1.654c-1.025-1.066-1.558-2.469-1.5-3.95c0.083-2.126,1.51-4.069,3.551-4.835c0.8-0.3,1.628-0.403,2.468-0.299c0.376-1.823,1.997-3.182,3.905-3.182c0.684,0,1.354,0.179,1.944,0.509c0-0.385,0.035-0.772,0.107-1.159c0.476-2.562,2.62-4.573,5.215-4.891c1.677-0.205,3.319,0.266,4.615,1.328c1.004,0.823,1.716,1.951,2.038,3.193c1.012-0.916,2.319-1.425,3.714-1.425c3.067,0,5.563,2.496,5.563,5.563c0,0.083-0.002,0.167-0.007,0.249c2.254,0.672,3.848,2.777,3.848,5.164C85.958,41.257,83.541,43.674,80.57,43.674z"/><path fill="#472b29" d="M55.25 39.307c-.006 0-.012 0-.017 0-.138-.009-.242-.128-.233-.266.107-1.587 1.581-2.78 3.308-2.673.135.009.271.026.409.053.274-.968 1.256-1.646 2.365-1.568.425.028.824.161 1.164.382 0-.019.002-.037.003-.055.121-1.793 1.792-3.144 3.743-3.022.138.009.242.128.233.266-.009.138-.133.247-.266.233-1.66-.107-3.108 1.038-3.21 2.557-.012.184-.004.37.023.552.017.109-.041.217-.141.264-.1.046-.219.023-.293-.061-.317-.358-.787-.583-1.288-.616-.929-.06-1.775.555-1.893 1.405-.01.071-.05.134-.11.174-.06.04-.133.051-.204.033-.189-.052-.38-.084-.567-.096-1.436-.095-2.688.895-2.776 2.208C55.491 39.206 55.381 39.307 55.25 39.307zM77.959 36.165c-.018 0-.037-.002-.056-.006-.134-.03-.219-.165-.188-.299.049-.216.123-.427.22-.627.783-1.621 2.9-2.243 4.72-1.384.125.059.179.208.12.333-.06.126-.209.177-.333.12-1.572-.741-3.394-.227-4.057 1.149-.08.166-.142.341-.183.521C78.176 36.086 78.073 36.165 77.959 36.165z"/><path fill="#fff" d="M18.208 48.041H8.178c-.276 0-.5-.224-.5-.5s.224-.5.5-.5h10.03c.276 0 .5.224.5.5S18.485 48.041 18.208 48.041zM21.09 48.041h-1.446c-.276 0-.5-.224-.5-.5s.224-.5.5-.5h1.446c.276 0 .5.224.5.5S21.366 48.041 21.09 48.041zM25.145 48.041h-2.546c-.276 0-.5-.224-.5-.5s.224-.5.5-.5h2.546c.276 0 .5.224.5.5S25.421 48.041 25.145 48.041zM25.145 49.906h-9.617c-.276 0-.5-.224-.5-.5s.224-.5.5-.5h9.617c.276 0 .5.224.5.5S25.421 49.906 25.145 49.906zM13.796 49.906h-.58c-.276 0-.5-.224-.5-.5s.224-.5.5-.5h.58c.276 0 .5.224.5.5S14.073 49.906 13.796 49.906zM11.42 49.906H9.963c-.276 0-.5-.224-.5-.5s.224-.5.5-.5h1.457c.276 0 .5.224.5.5S11.696 49.906 11.42 49.906zM20.556 46.176h-5.028c-.276 0-.5-.224-.5-.5s.224-.5.5-.5h5.028c.276 0 .5.224.5.5S20.832 46.176 20.556 46.176zM20.556 44.312h-1.257c-.276 0-.5-.224-.5-.5s.224-.5.5-.5h1.257c.276 0 .5.224.5.5S20.832 44.312 20.556 44.312zM17.287 51.771h-1.759c-.276 0-.5-.224-.5-.5s.224-.5.5-.5h1.759c.276 0 .5.224.5.5S17.563 51.771 17.287 51.771z"/><g><path fill="#fff" d="M71.387 21.764H61.356c-.276 0-.5-.224-.5-.5s.224-.5.5-.5h10.031c.276 0 .5.224.5.5S71.663 21.764 71.387 21.764zM74.268 21.764h-1.446c-.276 0-.5-.224-.5-.5s.224-.5.5-.5h1.446c.276 0 .5.224.5.5S74.544 21.764 74.268 21.764zM78.322 21.764h-2.546c-.276 0-.5-.224-.5-.5s.224-.5.5-.5h2.546c.276 0 .5.224.5.5S78.599 21.764 78.322 21.764zM76.296 18.035H66.68c-.276 0-.5-.224-.5-.5s.224-.5.5-.5h9.616c.276 0 .5.224.5.5S76.573 18.035 76.296 18.035zM64.949 18.035h-.58c-.276 0-.5-.224-.5-.5s.224-.5.5-.5h.58c.276 0 .5.224.5.5S65.225 18.035 64.949 18.035zM62.572 18.035h-1.456c-.276 0-.5-.224-.5-.5s.224-.5.5-.5h1.456c.276 0 .5.224.5.5S62.848 18.035 62.572 18.035zM73.733 19.899h-5.027c-.276 0-.5-.224-.5-.5s.224-.5.5-.5h5.027c.276 0 .5.224.5.5S74.01 19.899 73.733 19.899z"/><path fill="#fff" d="M73.733 18.035h-1.257c-.276 0-.5-.224-.5-.5s.224-.5.5-.5h1.257c.276 0 .5.224.5.5S74.01 18.035 73.733 18.035zM67.25 19.899h-1.758c-.276 0-.5-.224-.5-.5s.224-.5.5-.5h1.758c.276 0 .5.224.5.5S67.527 19.899 67.25 19.899z"/></g><g><path fill="#ededeb" d="M69.547,67.665l0.102-22.904h0.278c0.828-0.425,1.328-1.139,1.328-2.199c0-0.258-0.005-0.491-0.013-0.773l-1.341-9.598l0.293-1.783c0-0.682-0.591-1.241-1.314-1.241H32.644c-0.722,0-1.314,0.558-1.314,1.241l0.264,1.106l-1.637,10.185c-0.001,0-0.001,0-0.001,0c-0.001,0.003-0.001,0.006-0.001,0.009l-0.003,0.081c-0.01,0.23-0.017,0.475-0.017,0.748c0,1.117,0.486,1.864,1.395,2.209l0,0.199v22.72h-1.295v1.893H71.49v-1.893H69.547z"/><path fill="#472b29" d="M71.49,70.058H30.035c-0.276,0-0.5-0.224-0.5-0.5v-1.894c0-0.276,0.224-0.5,0.5-0.5h0.795V45.068c-0.903-0.473-1.396-1.359-1.396-2.532c0-0.281,0.006-0.534,0.018-0.771c0.001-0.02,0.007-0.129,0.01-0.149l1.622-10.084l-0.241-1.01c-0.009-0.038-0.014-0.077-0.014-0.116c0-0.96,0.814-1.741,1.814-1.741h36.237c1,0,1.813,0.781,1.813,1.741l-0.288,1.789l1.33,9.523c0.013,0.342,0.018,0.58,0.018,0.842c0,1.193-0.553,2.107-1.6,2.644c-0.003,0.001-0.005,0.003-0.008,0.004l-0.098,21.955h1.441c0.276,0,0.5,0.224,0.5,0.5v1.894C71.99,69.834,71.766,70.058,71.49,70.058z M30.535,69.058H70.99v-0.894h-1.443c-0.133,0-0.261-0.053-0.354-0.147s-0.146-0.222-0.146-0.355l0.102-22.904c0.001-0.275,0.225-0.498,0.5-0.498H69.8c0.642-0.366,0.955-0.923,0.955-1.699c0-0.253-0.005-0.482-0.013-0.758l-1.335-9.543c-0.007-0.05-0.006-0.101,0.002-0.15l0.293-1.784c-0.007-0.327-0.372-0.66-0.82-0.66H32.644c-0.43,0-0.783,0.305-0.812,0.69l0.248,1.042c0.015,0.064,0.018,0.13,0.007,0.195l-1.635,10.172c0,0.022-0.001,0.044-0.001,0.048c-0.01,0.223-0.017,0.46-0.017,0.725c0,0.898,0.351,1.467,1.073,1.742c0.194,0.074,0.323,0.26,0.323,0.467v22.919c0,0.276-0.224,0.5-0.5,0.5h-0.795V69.058z"/><path fill="#cbc9bc" d="M60.768 61.984L37.505 61.984 37.505 58.303 64.159 58.303 64.159 61.984 62.886 61.984"/><path fill="#472b29" d="M64.159,62.384h-1.273c-0.221,0-0.4-0.179-0.4-0.4s0.179-0.4,0.4-0.4h0.874v-2.882H37.905v2.882h22.863c0.221,0,0.4,0.179,0.4,0.4s-0.179,0.4-0.4,0.4H37.505c-0.221,0-0.4-0.179-0.4-0.4v-3.682c0-0.221,0.179-0.4,0.4-0.4h26.654c0.221,0,0.4,0.179,0.4,0.4v3.682C64.559,62.205,64.38,62.384,64.159,62.384z"/><path fill="#a8dbdb" d="M62.804 42.932L62.804 58.303 38.618 58.303 38.618 42.603"/><path fill="#472b29" d="M62.804,58.653H38.618c-0.193,0-0.35-0.157-0.35-0.35v-15.7c0-0.193,0.157-0.35,0.35-0.35s0.35,0.157,0.35,0.35v15.35h23.486V42.932c0-0.193,0.157-0.35,0.35-0.35s0.35,0.157,0.35,0.35v15.371C63.154,58.496,62.998,58.653,62.804,58.653z"/><path fill="#8889b9" d="M40.775 54.989H46.722V58.302H40.775z"/><path fill="#472b29" d="M46.721,58.653h-5.947c-0.193,0-0.35-0.157-0.35-0.35v-3.313c0-0.193,0.157-0.35,0.35-0.35h5.947c0.193,0,0.35,0.157,0.35,0.35v3.313C47.071,58.496,46.915,58.653,46.721,58.653z M41.125,57.953h5.247v-2.613h-5.247V57.953z"/><path fill="#f4989e" d="M54.943 54.99H60.89V58.303000000000004H54.943z"/><path fill="#472b29" d="M60.89,58.653h-5.946c-0.193,0-0.35-0.157-0.35-0.35V54.99c0-0.193,0.157-0.35,0.35-0.35h5.946c0.193,0,0.35,0.157,0.35,0.35v3.313C61.24,58.496,61.083,58.653,60.89,58.653z M55.293,57.953h5.246V55.34h-5.246V57.953z"/><path fill="#a1a1ca" d="M41.426 51.676H46.07V54.989000000000004H41.426z"/><path fill="#472b29" d="M46.07,55.339h-4.644c-0.193,0-0.35-0.157-0.35-0.35v-3.313c0-0.193,0.157-0.35,0.35-0.35h4.644c0.193,0,0.35,0.157,0.35,0.35v3.313C46.42,55.183,46.263,55.339,46.07,55.339z M41.776,54.639h3.944v-2.613h-3.944V54.639z"/><path fill="#f9b7bd" d="M56.029 51.676H59.804V54.989000000000004H56.029z"/><path fill="#472b29" d="M59.804,55.339h-3.775c-0.193,0-0.35-0.157-0.35-0.35v-3.313c0-0.193,0.157-0.35,0.35-0.35h3.775c0.193,0,0.35,0.157,0.35,0.35v3.313C60.154,55.183,59.998,55.339,59.804,55.339z M56.379,54.639h3.075v-2.613h-3.075V54.639z"/><path fill="#00a5a5" d="M51.792,54.433c0.199-0.219,0.186-1.453-0.036-1.676h-1.848c-0.221,0.223-0.234,1.457-0.036,1.676c-0.685,0.34-1.158,1.022-1.158,1.819c0,1.133,0.948,2.051,2.117,2.051c1.169,0,2.117-0.918,2.117-2.051C52.95,55.455,52.476,54.773,51.792,54.433z"/><path fill="#472b29" d="M50.832,58.653c-1.36,0-2.467-1.077-2.467-2.401c0-0.798,0.407-1.531,1.08-1.976c-0.128-0.574-0.049-1.499,0.214-1.765c0.066-0.066,0.156-0.104,0.249-0.104h1.848c0.093,0,0.183,0.038,0.249,0.104c0.264,0.267,0.342,1.191,0.214,1.765c0.673,0.445,1.081,1.177,1.081,1.976C53.3,57.576,52.193,58.653,50.832,58.653z M50.124,53.107c-0.06,0.284-0.06,0.95,0.026,1.114c0.074,0.082,0.096,0.181,0.076,0.289s-0.099,0.188-0.197,0.237c-0.595,0.295-0.964,0.873-0.964,1.505c0,0.938,0.792,1.701,1.767,1.701s1.768-0.763,1.768-1.701c0-0.633-0.369-1.21-0.964-1.505c-0.098-0.049-0.168-0.141-0.188-0.249c-0.019-0.101,0.007-0.204,0.07-0.283c0.081-0.173,0.081-0.81,0.015-1.107H50.124z"/><g><path fill="#ee3e54" d="M34.718,32.637h-3.182l-1.625,8.991c-0.001,0-0.014,0.003-0.015,0.003c0,0.003,0-0.003,0,0l0,0l0,0c-0.01,0.209-0.016,0.431-0.016,0.679v0c0,1.276,0.958,2.319,2.128,2.319h0.369c1.171,0,2.341-1.044,2.341-2.319l0,0c0-0.245,0.008-0.47,0-0.679l0,0V32.637z"/><path fill="#472b29" d="M32.377,44.979h-0.369c-1.366,0-2.478-1.197-2.478-2.669c0-0.253,0.006-0.481,0.016-0.695c0.002-0.05,0.015-0.097,0.037-0.14l1.608-8.899c0.03-0.167,0.175-0.288,0.344-0.288h3.182c0.193,0,0.35,0.157,0.35,0.35v8.994c0.005,0.129,0.004,0.279,0.002,0.438l-0.002,0.241C35.068,43.731,33.811,44.979,32.377,44.979z M30.242,41.743c-0.007,0.176-0.011,0.363-0.011,0.567c0,1.085,0.797,1.969,1.778,1.969h0.369c0.94,0,1.991-0.842,1.991-1.969l0.002-0.25c0.002-0.146,0.003-0.284-0.001-0.415l0-8.658h-2.54l-1.573,8.703C30.252,41.708,30.248,41.726,30.242,41.743z"/></g><g><path fill="#fdfcef" d="M39.279,32.637h-4.56v8.836c0,0,0,0.455,0,0.714c0,1.343,1.008,2.441,2.24,2.441h0.294c1.188,0,2.027-1.044,2.027-2.319C39.279,42.064,39.279,32.637,39.279,32.637z"/><path fill="#472b29" d="M37.252,44.979h-0.293c-1.428,0-2.59-1.252-2.59-2.791v-9.55c0-0.193,0.157-0.35,0.35-0.35h4.561c0.193,0,0.35,0.157,0.35,0.35v9.672C39.629,43.831,38.607,44.979,37.252,44.979z M35.068,32.987v9.2c0,1.153,0.848,2.091,1.89,2.091h0.293c0.956,0,1.677-0.846,1.677-1.969v-9.322H35.068z"/></g><g><path fill="#ee3e54" d="M43.839,32.637h-4.56v8.836c0,0,0,0.455,0,0.714c0,1.343,1.008,2.441,2.24,2.441h0.294c1.188,0,2.027-1.044,2.027-2.319c0-0.245,0.008-0.47,0-0.679l0,0V32.637z"/><path fill="#472b29" d="M41.812,44.979h-0.293c-1.428,0-2.59-1.252-2.59-2.791v-9.55c0-0.193,0.157-0.35,0.35-0.35h4.56c0.193,0,0.35,0.157,0.35,0.35v8.994c0.005,0.129,0.004,0.279,0.002,0.438l-0.002,0.241C44.189,43.831,43.167,44.979,41.812,44.979z M39.629,32.987v9.2c0,1.153,0.848,2.091,1.89,2.091h0.293c0.956,0,1.676-0.846,1.676-1.969l0.002-0.25c0.002-0.146,0.003-0.284-0.001-0.415l0-8.658H39.629z"/></g><g><path fill="#fdfcef" d="M48.399,32.637h-4.56v8.836c0,0,0,0.455,0,0.714c0,1.343,1.008,2.441,2.24,2.441h0.294c1.188,0,2.027-1.044,2.027-2.319c0-0.245,0.008-0.47,0-0.679l0,0V32.637z"/><path fill="#472b29" d="M46.373,44.979H46.08c-1.429,0-2.591-1.252-2.591-2.791v-9.55c0-0.193,0.157-0.35,0.35-0.35h4.561c0.193,0,0.35,0.157,0.35,0.35v8.994c0.005,0.129,0.004,0.279,0.002,0.438L48.75,42.31C48.75,43.831,47.728,44.979,46.373,44.979z M44.189,32.987v9.2c0,1.153,0.848,2.091,1.891,2.091h0.293c0.956,0,1.676-0.846,1.676-1.969l0.002-0.25c0.002-0.146,0.003-0.284-0.001-0.415l0-8.658H44.189z"/></g><g><path fill="#ee3e54" d="M52.96,32.637h-4.56v8.836c0,0,0,0.455,0,0.714c0,1.343,1.008,2.441,2.24,2.441h0.294c1.188,0,2.027-1.044,2.027-2.319C52.96,42.064,52.96,32.637,52.96,32.637z"/><path fill="#472b29" d="M50.933,44.979H50.64c-1.428,0-2.59-1.252-2.59-2.791v-9.55c0-0.193,0.157-0.35,0.35-0.35h4.561c0.193,0,0.35,0.157,0.35,0.35v9.672C53.31,43.831,52.288,44.979,50.933,44.979z M48.75,32.987v9.2c0,1.153,0.848,2.091,1.89,2.091h0.293c0.956,0,1.677-0.846,1.677-1.969v-9.322H48.75z"/></g><g><path fill="#fdfcef" d="M57.52,32.637h-4.56v8.836c0,0,0,0.455,0,0.714c0,1.343,1.008,2.441,2.24,2.441h0.294c1.188,0,2.027-1.06,2.027-2.336c0-0.245,0.008-0.454,0-0.662l0,0V32.637z"/><path fill="#472b29" d="M55.494,44.979H55.2c-1.428,0-2.59-1.252-2.59-2.791v-9.55c0-0.193,0.157-0.35,0.35-0.35h4.56c0.193,0,0.35,0.157,0.35,0.35v8.994c0.005,0.128,0.004,0.271,0.002,0.424l-0.002,0.238C57.87,43.799,56.826,44.979,55.494,44.979z M53.31,32.987v9.2c0,1.153,0.848,2.091,1.89,2.091h0.293c0.956,0,1.676-0.854,1.676-1.985l0.002-0.247c0.002-0.14,0.003-0.271-0.001-0.401l0-8.658H53.31z"/></g><g><path fill="#ee3e54" d="M62.08,32.637h-4.56v8.836c0,0,0,0.302,0,0.466c0,1.479,1.009,2.69,2.243,2.69h0.294c1.189,0,2.026-1.18,2.026-2.586c0-0.155,0-0.271-0.002-0.412l0,0V32.637z"/><path fill="#472b29" d="M60.057,44.979h-0.294c-1.43,0-2.593-1.364-2.593-3.04v-9.302c0-0.193,0.157-0.35,0.35-0.35h4.561c0.193,0,0.35,0.157,0.35,0.35l0.002,9.34C62.433,43.689,61.389,44.979,60.057,44.979z M57.87,32.987v8.952c0,1.29,0.849,2.339,1.893,2.339h0.294c0.939,0,1.675-0.982,1.675-2.235l-0.002-9.056H57.87z"/></g><g><path fill="#fdfcef" d="M66.641,32.637h-4.56v8.836c0,0,0,0.455,0,0.714c0,1.343,1.008,2.441,2.24,2.441h0.294c1.188,0,2.027-1.044,2.027-2.319c0-0.245,0.008-0.47,0-0.679l0,0V32.637z"/><path fill="#472b29" d="M64.614,44.979h-0.293c-1.428,0-2.59-1.252-2.59-2.791v-9.55c0-0.193,0.157-0.35,0.35-0.35h4.56c0.193,0,0.35,0.157,0.35,0.35v8.994c0.005,0.129,0.004,0.279,0.002,0.438l-0.002,0.241C66.991,43.831,65.969,44.979,64.614,44.979z M62.431,32.987v9.2c0,1.153,0.848,2.091,1.89,2.091h0.293c0.956,0,1.676-0.846,1.676-1.969l0.002-0.25c0.002-0.146,0.003-0.284-0.001-0.415l0-8.658H62.431z"/></g><g><path fill="#ee3e54" d="M71.253,41.631L71.253,41.631l-1.454-8.993h-3.158v8.836h0.016c-0.01,0.219-0.016,0.455-0.016,0.714v0c0,1.343,1.008,2.441,2.24,2.441h0.257c1.171,0,2.128-1.044,2.128-2.319v0C71.266,42.063,71.261,41.84,71.253,41.631z"/><path fill="#472b29" d="M69.138,44.979h-0.257c-1.428,0-2.59-1.252-2.59-2.791c0-0.225,0.004-0.433,0.012-0.628c-0.007-0.028-0.012-0.057-0.012-0.086v-8.836c0-0.193,0.157-0.35,0.35-0.35h3.158c0.172,0,0.318,0.125,0.346,0.294l1.454,8.994c0.002,0.014,0.003,0.028,0.004,0.042c0.009,0.213,0.014,0.441,0.014,0.692C71.616,43.781,70.504,44.979,69.138,44.979z M66.991,41.379c0.011,0.035,0.017,0.072,0.015,0.11c-0.009,0.214-0.015,0.445-0.015,0.699c0,1.153,0.848,2.091,1.89,2.091h0.257c0.98,0,1.778-0.883,1.778-1.969c0-0.233-0.005-0.445-0.013-0.644l-1.402-8.678h-2.51V41.379z"/></g><g><path fill="#472b29" d="M71.201,42.404H30.158c-0.166,0-0.3-0.134-0.3-0.3s0.134-0.3,0.3-0.3h41.043c0.166,0,0.3,0.134,0.3,0.3S71.367,42.404,71.201,42.404z"/></g><g><path fill="#472b29" d="M67.133,68.427H66.55c-0.276,0-0.5-0.224-0.5-0.5s0.224-0.5,0.5-0.5h0.583c0.276,0,0.5,0.224,0.5,0.5S67.41,68.427,67.133,68.427z"/></g><g><path fill="#fff" d="M64.717 67.927L64.894 67.927"/><path fill="#472b29" d="M64.894,68.427h-0.177c-0.276,0-0.5-0.224-0.5-0.5s0.224-0.5,0.5-0.5h0.177c0.276,0,0.5,0.224,0.5,0.5S65.17,68.427,64.894,68.427z"/></g><g><path fill="#472b29" d="M63.279,68.427H31.624c-0.276,0-0.5-0.224-0.5-0.5s0.224-0.5,0.5-0.5h31.655c0.276,0,0.5,0.224,0.5,0.5S63.555,68.427,63.279,68.427z"/></g></g><g><path fill="#fdfcef" d="M38.837,72.321c1.883,0,3.517,0,3.54,0c2.11,0,3.821-1.674,3.821-3.739c0-1.802-1.302-3.305-3.035-3.66c0.02-0.158,0.034-0.317,0.034-0.48c0-2.139-1.772-3.873-3.957-3.873c-1.29,0-2.433,0.607-3.155,1.543c-0.185-2.381-2.358-4.218-4.9-3.913c-1.859,0.223-3.397,1.629-3.739,3.431c-0.11,0.578-0.098,1.139,0.011,1.665c-0.498-0.525-1.208-0.856-1.998-0.856c-1.446,0-2.627,1.102-2.72,2.494c-0.657-0.142-1.371-0.133-2.123,0.143c-1.438,0.528-2.462,1.853-2.522,3.356c-0.085,2.133,1.657,3.889,3.818,3.889c0.164,0,0.741,0,0.874,0h7.934 M32.36,72.321h0.36"/><path fill="#472b29" d="M42.377,72.821h-3.541c-0.276,0-0.5-0.224-0.5-0.5s0.224-0.5,0.5-0.5h3.541c1.831,0,3.32-1.453,3.32-3.239c0-1.524-1.108-2.857-2.635-3.17c-0.256-0.052-0.429-0.293-0.396-0.553c0.018-0.137,0.03-0.276,0.03-0.417c0-1.86-1.551-3.373-3.457-3.373c-1.092,0-2.098,0.491-2.76,1.348c-0.126,0.164-0.341,0.233-0.539,0.173c-0.198-0.059-0.339-0.234-0.355-0.44c-0.079-1.019-0.565-1.943-1.37-2.603c-0.829-0.68-1.886-0.983-2.973-0.852c-1.646,0.197-3.006,1.442-3.307,3.028c-0.094,0.495-0.09,0.989,0.01,1.471c0.045,0.219-0.06,0.441-0.258,0.544c-0.197,0.104-0.44,0.064-0.595-0.099c-0.429-0.452-1.009-0.701-1.635-0.701c-1.169,0-2.145,0.891-2.221,2.028c-0.01,0.145-0.082,0.279-0.198,0.366c-0.116,0.087-0.264,0.119-0.407,0.089c-0.637-0.139-1.241-0.098-1.845,0.124c-1.262,0.464-2.144,1.632-2.195,2.906c-0.035,0.875,0.283,1.708,0.895,2.344c0.635,0.661,1.496,1.025,2.423,1.025h8.808c0.276,0,0.5,0.224,0.5,0.5s-0.224,0.5-0.5,0.5H21.91c-1.185,0-2.331-0.485-3.145-1.332c-0.802-0.835-1.218-1.928-1.172-3.077c0.066-1.674,1.211-3.203,2.849-3.805c0.611-0.225,1.244-0.306,1.88-0.245c0.344-1.396,1.629-2.424,3.136-2.424c0.493,0,0.976,0.113,1.414,0.323c0.009-0.241,0.036-0.483,0.082-0.726c0.381-2.009,2.097-3.586,4.17-3.834c1.361-0.159,2.686,0.218,3.726,1.072c0.748,0.613,1.278,1.409,1.547,2.302c0.791-0.648,1.785-1.007,2.842-1.007c2.458,0,4.457,1.962,4.457,4.373c0,0.034,0,0.068-0.001,0.103c1.764,0.555,3.003,2.188,3.003,4.038C46.698,70.919,44.76,72.821,42.377,72.821z M32.719,72.821H32.36c-0.276,0-0.5-0.224-0.5-0.5s0.224-0.5,0.5-0.5h0.359c0.276,0,0.5,0.224,0.5,0.5S32.996,72.821,32.719,72.821z"/><path fill="#472b29" d="M40.67,67.018c-0.018,0-0.036-0.002-0.055-0.006c-0.135-0.03-0.219-0.164-0.189-0.299c0.038-0.167,0.094-0.328,0.169-0.479c0.604-1.223,2.274-1.674,3.722-1.006c0.125,0.058,0.18,0.207,0.122,0.332c-0.058,0.125-0.207,0.179-0.332,0.122c-1.203-0.555-2.578-0.208-3.063,0.774c-0.058,0.116-0.101,0.24-0.129,0.367C40.888,66.939,40.785,67.018,40.67,67.018z"/><g><path fill="#fdfcef" d="M34.404 72.321L35.511 72.321"/><path fill="#472b29" d="M35.511,72.821h-1.107c-0.276,0-0.5-0.224-0.5-0.5s0.224-0.5,0.5-0.5h1.107c0.276,0,0.5,0.224,0.5,0.5S35.787,72.821,35.511,72.821z"/></g></g><g><path fill="#fbcd59" d="M62.052 65.83800000000001A6.791 6.791 0 1 0 62.052 79.42A6.791 6.791 0 1 0 62.052 65.83800000000001Z"/><path fill="#472b29" d="M62.052,79.92c-4.021,0-7.292-3.271-7.292-7.292s3.271-7.292,7.292-7.292s7.292,3.271,7.292,7.292S66.073,79.92,62.052,79.92z M62.052,66.337c-3.469,0-6.292,2.822-6.292,6.292s2.822,6.292,6.292,6.292s6.292-2.822,6.292-6.292S65.521,66.337,62.052,66.337z"/><path fill="#f1bc19" d="M62.052 68.188A4.441 4.441 0 1 0 62.052 77.07000000000001A4.441 4.441 0 1 0 62.052 68.188Z"/><path fill="#472b29" d="M62.052,77.32c-2.586,0-4.69-2.104-4.69-4.691s2.104-4.69,4.69-4.69s4.69,2.104,4.69,4.69S64.639,77.32,62.052,77.32z M62.052,68.438c-2.311,0-4.19,1.88-4.19,4.19c0,2.311,1.88,4.191,4.19,4.191s4.19-1.88,4.19-4.191C66.243,70.318,64.363,68.438,62.052,68.438z"/><g><path fill="#fbcd59" d="M73.385 60.134A6.791 6.791 0 1 0 73.385 73.716A6.791 6.791 0 1 0 73.385 60.134Z"/><path fill="#472b29" d="M73.385,74.216c-4.021,0-7.292-3.271-7.292-7.292s3.271-7.292,7.292-7.292s7.292,3.271,7.292,7.292S77.406,74.216,73.385,74.216z M73.385,60.633c-3.469,0-6.292,2.822-6.292,6.292s2.822,6.292,6.292,6.292s6.292-2.822,6.292-6.292S76.854,60.633,73.385,60.633z"/></g><g><path fill="#f1bc19" d="M73.385 62.483999999999995A4.441 4.441 0 1 0 73.385 71.366A4.441 4.441 0 1 0 73.385 62.483999999999995Z"/><path fill="#472b29" d="M73.385,71.615c-2.586,0-4.69-2.104-4.69-4.69s2.104-4.691,4.69-4.691s4.691,2.104,4.691,4.691S75.972,71.615,73.385,71.615z M73.385,62.734c-2.311,0-4.19,1.88-4.19,4.191c0,2.311,1.88,4.19,4.19,4.19c2.311,0,4.191-1.88,4.191-4.19C77.576,64.614,75.696,62.734,73.385,62.734z"/></g><g><path fill="#472b29" d="M72.705,68.111c0.006,0,0.018,0.006,0.037,0.018l-0.009-0.005c0.089,0.061,0.169,0.11,0.239,0.145c0.071,0.035,0.146,0.06,0.225,0.076v-1.43l-0.083-0.046c-0.101-0.055-0.198-0.113-0.29-0.175s-0.175-0.129-0.248-0.202c-0.074-0.073-0.136-0.152-0.186-0.234c-0.051-0.083-0.085-0.173-0.104-0.271c-0.012-0.049-0.019-0.095-0.021-0.138c-0.001-0.043-0.002-0.089-0.002-0.138c0-0.144,0.024-0.27,0.071-0.377c0.048-0.107,0.113-0.199,0.196-0.274c0.083-0.075,0.181-0.135,0.294-0.18c0.113-0.044,0.238-0.074,0.372-0.089v-0.129c0-0.061,0.014-0.113,0.042-0.156c0.028-0.043,0.078-0.064,0.152-0.064h0.019c0.159,0,0.247,0.078,0.262,0.234L73.666,64.8c0.086,0.015,0.174,0.039,0.264,0.071c0.091,0.032,0.192,0.073,0.306,0.122l-0.013-0.009c0.052,0.018,0.092,0.041,0.122,0.069s0.047,0.072,0.053,0.133v0.028c0,0.022-0.006,0.049-0.016,0.083c-0.011,0.034-0.027,0.066-0.048,0.097c-0.022,0.031-0.046,0.058-0.074,0.08c-0.028,0.023-0.058,0.035-0.092,0.035c-0.028,0-0.053-0.003-0.076-0.007c-0.023-0.004-0.05-0.018-0.08-0.039v0.004l-0.051-0.028c-0.089-0.046-0.187-0.083-0.294-0.11v1.255l0.018,0.009c0.248,0.126,0.44,0.265,0.575,0.418c0.135,0.153,0.224,0.312,0.267,0.478c0.018,0.07,0.031,0.135,0.039,0.193c0.007,0.058,0.012,0.118,0.012,0.179c0,0.141-0.023,0.268-0.069,0.382c-0.046,0.113-0.109,0.212-0.188,0.297c-0.08,0.084-0.176,0.153-0.287,0.207c-0.112,0.054-0.234,0.09-0.366,0.108v0.331c0,0.061-0.012,0.113-0.037,0.156c-0.024,0.043-0.075,0.064-0.152,0.064H73.45c-0.077,0-0.138-0.021-0.184-0.062s-0.069-0.102-0.069-0.181v-0.308c-0.165-0.018-0.308-0.055-0.427-0.11c-0.12-0.055-0.242-0.124-0.368-0.207c-0.034-0.027-0.057-0.054-0.069-0.078c-0.012-0.024-0.026-0.058-0.041-0.101v-0.028c0-0.027,0.008-0.059,0.025-0.094c0.017-0.036,0.037-0.069,0.062-0.101c0.025-0.032,0.051-0.06,0.078-0.083c0.028-0.023,0.054-0.034,0.078-0.034c0.034,0,0.064,0.01,0.09,0.03c0.026,0.02,0.051,0.04,0.076,0.062H72.705c0.006,0.003,0.01,0.004,0.013,0.004L72.705,68.111z M72.942,66.157c0.072,0.067,0.157,0.127,0.255,0.179v-1.007c-0.116,0.025-0.214,0.072-0.292,0.143c-0.078,0.071-0.117,0.166-0.117,0.285c0,0.018,0.001,0.039,0.002,0.06c0.002,0.021,0.005,0.048,0.012,0.078C72.823,66.002,72.87,66.089,72.942,66.157z M73.887,67.368c-0.061-0.075-0.135-0.14-0.221-0.195v1.145c0.107-0.043,0.197-0.109,0.269-0.198c0.072-0.089,0.108-0.193,0.108-0.312c0-0.034-0.003-0.064-0.009-0.092c-0.006-0.028-0.012-0.057-0.018-0.088C73.991,67.53,73.948,67.444,73.887,67.368z"/></g><g><path fill="#472b29" d="M61.337,73.816c0.006,0,0.018,0.006,0.037,0.018l-0.009-0.005c0.089,0.061,0.169,0.11,0.239,0.145c0.071,0.035,0.146,0.06,0.225,0.076v-1.43l-0.083-0.046c-0.101-0.055-0.198-0.113-0.29-0.175s-0.175-0.129-0.248-0.202c-0.074-0.073-0.136-0.152-0.186-0.234c-0.051-0.083-0.085-0.173-0.104-0.271c-0.012-0.049-0.019-0.095-0.021-0.138c-0.001-0.043-0.002-0.089-0.002-0.138c0-0.144,0.024-0.27,0.071-0.377c0.048-0.107,0.113-0.199,0.196-0.274c0.083-0.075,0.181-0.135,0.294-0.18c0.113-0.044,0.238-0.074,0.372-0.089v-0.129c0-0.061,0.014-0.113,0.042-0.156c0.028-0.043,0.078-0.064,0.152-0.064h0.019c0.159,0,0.247,0.078,0.262,0.234l-0.004,0.124c0.086,0.015,0.174,0.039,0.264,0.071c0.091,0.032,0.192,0.073,0.306,0.122l-0.013-0.009c0.052,0.018,0.092,0.041,0.122,0.069c0.029,0.028,0.047,0.072,0.053,0.133v0.028c0,0.022-0.006,0.049-0.016,0.083c-0.011,0.034-0.027,0.066-0.048,0.097c-0.022,0.031-0.046,0.058-0.074,0.08c-0.028,0.023-0.058,0.035-0.092,0.035c-0.028,0-0.053-0.003-0.076-0.007c-0.023-0.004-0.05-0.018-0.08-0.039v0.004l-0.051-0.028c-0.089-0.046-0.187-0.083-0.294-0.11v1.255l0.018,0.009c0.248,0.126,0.44,0.265,0.575,0.418c0.135,0.153,0.224,0.312,0.267,0.478c0.018,0.07,0.031,0.135,0.039,0.193c0.007,0.058,0.012,0.118,0.012,0.179c0,0.141-0.023,0.268-0.069,0.382c-0.046,0.113-0.109,0.212-0.188,0.297c-0.08,0.084-0.176,0.153-0.287,0.207c-0.112,0.054-0.234,0.09-0.366,0.108v0.331c0,0.061-0.012,0.113-0.037,0.156c-0.024,0.043-0.075,0.064-0.152,0.064h-0.028c-0.077,0-0.138-0.021-0.184-0.062c-0.046-0.042-0.069-0.102-0.069-0.181V74.56c-0.165-0.018-0.308-0.055-0.427-0.11c-0.12-0.055-0.242-0.124-0.368-0.207c-0.034-0.027-0.057-0.054-0.069-0.078c-0.012-0.024-0.026-0.058-0.041-0.101v-0.028c0-0.027,0.008-0.059,0.025-0.094c0.017-0.036,0.037-0.069,0.062-0.101c0.025-0.032,0.051-0.06,0.078-0.083c0.028-0.023,0.054-0.034,0.078-0.034c0.034,0,0.064,0.01,0.09,0.03c0.026,0.02,0.051,0.04,0.076,0.062H61.337c0.006,0.003,0.01,0.004,0.013,0.004L61.337,73.816z M61.574,71.861c0.072,0.067,0.157,0.127,0.255,0.179v-1.007c-0.116,0.025-0.214,0.072-0.292,0.143c-0.078,0.071-0.117,0.166-0.117,0.285c0,0.018,0.001,0.039,0.002,0.06c0.001,0.021,0.005,0.048,0.012,0.078C61.455,71.706,61.502,71.794,61.574,71.861z M62.519,73.073c-0.061-0.075-0.135-0.14-0.221-0.195v1.145c0.107-0.043,0.197-0.109,0.269-0.198c0.072-0.089,0.108-0.193,0.108-0.312c0-0.034-0.003-0.064-0.009-0.092c-0.006-0.028-0.012-0.057-0.018-0.088C62.623,73.234,62.58,73.148,62.519,73.073z"/></g></g></g></svg>